PathFileType	4	(X/Y/Z)	C:/Users/beibeiliu/ov580/test_trc/User2\sequence.31_training_dense_left.trc
DataRate	CameraRate	NumFrames	NumMarkers	Units	OrigDataRate	OrigDataStartFrame	OrigNumFrames
120	120	9	19	mm	120	262	349
Frame#	Time	ThumbCMC			ThumbMCP			ThumbIP			ThumbTip			IndexMCP			IndexPIP			IndexTip			MiddleMCP			MiddlePIP			MiddleTip			RingMCP			RingPIP			RingTip			PinkyMCP			PinkyPIP			PinkyTip			BackHand1			BackHand2			BackHand3	
		X0	Y0	Z0	X1	Y1	Z1	X2	Y2	Z2	X3	Y3	Z3	X4	Y4	Z4	X5	Y5	Z5	X6	Y6	Z6	X7	Y7	Z7	X8	Y8	Z8	X9	Y9	Z9	X10	Y10	Z10	X11	Y11	Z11	X12	Y12	Z12	X13	Y13	Z13	X14	Y14	Z14	X15	Y15	Z15	X16	Y16	Z16	X17	Y17	Z17	X18	Y18	Z18	
261	2.175	-151.177	-3.31825	55.5861	-131.192	-16.3873	26.9648	-123.681	-26.0308	-7.72725	-121.702	-35.8617	-30.3996	-168.642	24.2614	-24.5828	-165.332	13.9412	-54.6916	-166.711	-8.2404	-76.0564	-198.638	22.4052	-28.8442	-197.421	5.10694	-62.0813	-188.101	-26.9357	-73.707	-217.752	4.52882	-23.6326	-210.731	-19.393	-48.5094	-191.119	-44.0951	-30.3998	-230.463	-12.217	-11.3722	-218.157	-36.2296	-31.0489	-198.642	-52.3061	-8.35234	-220.503	10.5902	33.7565	-220.961	9.50688	67.551	-183.584	23.6158	52.7817	
262	2.18333	-150.846	-11.8851	54.7516	-134.722	-25.367	26.9462	-121.538	-37.5572	0.163182	-118.895	-48.7721	-30.5091	-173.448	10.2344	-26.952	-166.143	0.549048	-57.0898	-168.795	-21.6296	-79.854	-199.657	9.50963	-27.2491	-198.164	-4.53437	-62.8935	-192.749	-41.1051	-75.7002	-220.023	-4.11582	-24.5077	-214.65	-26.1739	-49.6232	-196.798	-52.9707	-38.2533	-235.433	-19.5041	-11.298	-223.466	-45.1578	-32.8831	-206.333	-63.8839	-18.6962	-217.206	3.55819	37.725	-219.437	3.05247	71.8378	-186.605	12.0501	51.2357	
263	2.19167	-147.596	-28.1582	55.5301	-129.436	-42.1298	28.1201	-117.774	-55.6866	-0.585689	-115.721	-67.5779	-23.1555	-170.673	-11.5107	-27.646	-169.356	-20.9622	-58.4968	-168.049	-39.0847	-79.989	-201.042	-10.2638	-27.9556	-203.305	-25.2225	-64.752	-197.166	-62.238	-79.0153	-218.282	-18.2489	-21.4763	-221.155	-35.1417	-48.7012	-203.259	-67.5494	-43.9623	-234.636	-34.6201	-4.88723	-226.962	-54.0649	-32.3752	-212.852	-80.1397	-20.5621	-220.152	-15.8064	35.3422	-217.951	-11.7831	70.0965	-182.136	-3.49719	44.9557	
264	2.2	-151.869	-35.1596	54.8103	-131.469	-49.2331	33.7117	-115.795	-62.76	-0.531862	-110.746	-75.4355	-18.8576	-175.066	-21.9635	-28.382	-168.459	-28.9639	-55.1083	-170.192	-47.2398	-80.1291	-204.9	-19.4776	-32.1665	-202.603	-33.5289	-64.4682	-198.181	-67.0551	-80.2396	-222.24	-26.8966	-18.9483	-219.998	-41.409	-49.621	-207.142	-73.5915	-47.7902	-237.692	-40.92	-5.68754	-233.145	-56.841	-32.1216	-217.569	-82.3856	-24.893	-216.632	-23.1937	34.5534	-216.789	-17.6642	65.8684	-184.148	-9.77327	46.6955	
265	2.20833	-149.119	-37.5229	50.6286	-132.489	-52.0263	33.1387	-114.201	-64.5766	4.97828	-111.122	-77.7929	-17.5109	-175.002	-26.8965	-24.6376	-170.45	-35.5564	-59.0686	-171.539	-51.9188	-79.7461	-201.903	-23.7062	-28.5662	-206.891	-36.3143	-61.991	-201.851	-70.5071	-80.9996	-220.357	-29.651	-21.4593	-224.465	-45.7833	-49.3142	-211.082	-76.5644	-50.581	-237.381	-44.3284	-1.91343	-232.346	-62.6311	-32.0222	-218.759	-89.1884	-24.323	-219.251	-24.7005	36.4181	-217.469	-18.1424	64.6076	-181.864	-12.5012	44.6895	
266	2.21667	-149.482	-40.197	51.8111	-132.832	-53.8659	31.645	-115.568	-66.8439	5.48043	-110.996	-80.0609	-17.3591	-175.231	-29.5406	-24.6518	-169.666	-35.7458	-54.5246	-169.47	-53.1088	-79.0357	-204.808	-26.4022	-28.2343	-205.623	-39.1235	-63.065	-202.067	-74.1616	-83.0934	-220.458	-32.0337	-18.887	-223.819	-46.7951	-48.1103	-212.364	-84.7786	-51.2411	-236.462	-45.6428	-3.26025	-234.957	-64.207	-32.2201	-218.829	-90.6622	-25.9697	-218.279	-26.2211	33.447	-219.062	-22.4116	67.553	-182.519	-16.1956	46.4495	
267	2.225	-149.12	-41.5703	54.5232	-128.592	-54.4322	32.8691	-117.069	-69.1778	8.088	-107.777	-81.713	-16.437	-172.736	-30.3862	-23.5647	-169.332	-39.627	-56.891	-172.205	-57.3132	-82.0917	-202.035	-27.4876	-30.6882	-204.213	-39.5075	-61.1373	-200.279	-71.6426	-83.027	-223.394	-34.4103	-16.4685	-222.429	-49.5244	-49.1863	-214.002	-81.5325	-53.2399	-234.626	-47.1155	-0.378292	-234.122	-63.3971	-30.1088	-221.004	-91.9397	-27.5549	-221.763	-28.4014	36.1763	-218.488	-23.3916	70.2088	-183.6	-18.7541	48.0336	
268	2.23333	-147.783	-41.7484	57.821	-131.255	-55.427	34.8937	-113.215	-68.7197	4.83617	-108.221	-82.1535	-12.4174	-168.983	-32.0862	-26.4472	-168.498	-38.0825	-51.8432	-170.589	-57.096	-81.493	-202.048	-28.5885	-28.1655	-204.848	-42.5938	-63.3608	-201.766	-68.6502	-81.2958	-222.992	-35.5185	-17.2073	-221.319	-48.5554	-46.6218	-213.57	-79.5135	-52.8118	-238.991	-47.7632	0.188962	-233.711	-63.1093	-28.8084	-219.765	-93.94	-24.6829	-219.707	-28.4121	37.7909	-215.282	-22.6463	71.8242	-184.477	-18.602	45.8001	
269	2.24167	-144.75	-42.4869	60.5616	-126.214	-55.9562	34.9346	-114.15	-69.3939	8.33423	-106.277	-83.0619	-16.604	-169.833	-32.9078	-21.6979	-169.842	-38.851	-52.3518	-167.866	-55.6261	-78.2734	-202.149	-29.7161	-23.7648	-204.325	-39.7032	-58.4159	-203.081	-69.2368	-80.7075	-217.618	-34.2318	-18.6695	-219.98	-50.1568	-48.5003	-214.004	-85.5839	-53.306	-236.112	-48.348	3.38514	-234.531	-63.3059	-28.1796	-223.262	-91.4648	-27.868	-216.805	-30.7402	39.7243	-211.651	-20.8944	70.4306	-178.217	-20.1402	50.6912	
